HIERARCHY
ROOT Hips
{
  OFFSET 13.6774 106.653 -34.4427
  CHANNELS 6 Xposition Yposition Zposition Zrotation Xrotation Yrotation
  JOINT ToSpine
  {
    OFFSET -2.69724 7.43032 -0.144315
    CHANNELS 3 Zrotation Xrotation Yrotation
    JOINT Spine
    {
      OFFSET -0.0310711 10.7595 1.96963
      CHANNELS 3 Zrotation Xrotation Yrotation
      JOINT Spine1
      {
        OFFSET 19.9056 3.91189 0.764692
        CHANNELS 3 Zrotation Xrotation Yrotation
        JOINT Neck
        {
          OFFSET 25.9749 7.03908 -0.130764
          CHANNELS 3 Zrotation Xrotation Yrotation
          JOINT Head
          {
            OFFSET 9.52751 0.295786 -0.907742
            CHANNELS 3 Zrotation Xrotation Yrotation
            End Site
            {
              OFFSET 16.4037 0.713936 2.7358
            }
          }
        }
        JOINT LeftShoulder
        {
          OFFSET 17.7449 4.33886 11.7777
          CHANNELS 3 Zrotation Xrotation Yrotation
          JOINT LeftArm
          {
            OFFSET 0.911315 1.27913 9.80584
            CHANNELS 3 Zrotation Xrotation Yrotation
            JOINT LeftForeArm
            {
              OFFSET 28.6126 1.18197 -3.53199
              CHANNELS 3 Zrotation Xrotation Yrotation
              JOINT LeftHand
              {
                OFFSET 27.5088 0.0218783 0.327423
                CHANNELS 3 Zrotation Xrotation Yrotation
                End Site
                {
                  OFFSET 18.6038 -0.000155887 0.382096
                }
              }
            }
          }
        }
        JOINT RightShoulder
        {
          OFFSET 17.1009 2.89543 -12.2328
          CHANNELS 3 Zrotation Xrotation Yrotation
          JOINT RightArm
          {
            OFFSET 1.4228 0.178766 -10.211
            CHANNELS 3 Zrotation Xrotation Yrotation
            JOINT RightForeArm
            {
              OFFSET 28.733 1.87905 2.64907
              CHANNELS 3 Zrotation Xrotation Yrotation
              JOINT RightHand
              {
                OFFSET 27.4588 0.290562 -0.101845
                CHANNELS 3 Zrotation Xrotation Yrotation
                End Site
                {
                  OFFSET 17.8396 -0.255518 -0.000602873
                }
              }
            }
          }
        }
      }
    }
  }
  JOINT LeftUpLeg
  {
    OFFSET -5.61296 -2.22332 -10.2353
    CHANNELS 3 Zrotation Xrotation Yrotation
    JOINT LeftLeg
    {
      OFFSET 2.56703 -44.7417 -7.93097
      CHANNELS 3 Zrotation Xrotation Yrotation
      JOINT LeftFoot
      {
        OFFSET 3.16933 -46.5642 -3.96578
        CHANNELS 3 Zrotation Xrotation Yrotation
        JOINT LeftToeBase
        {
          OFFSET 0.346054 -6.02161 12.8035
          CHANNELS 3 Zrotation Xrotation Yrotation
          End Site
          {
            OFFSET 0.134235 -1.35082 5.13018
          }
        }
      }
    }
  }
  JOINT RightUpLeg
  {
    OFFSET -5.7928 -1.72406 10.6446
    CHANNELS 3 Zrotation Xrotation Yrotation
    JOINT RightLeg
    {
      OFFSET -2.57161 -44.7178 -7.85259
      CHANNELS 3 Zrotation Xrotation Yrotation
      JOINT RightFoot
      {
        OFFSET -3.10148 -46.5936 -4.03391
        CHANNELS 3 Zrotation Xrotation Yrotation
        JOINT RightToeBase
        {
          OFFSET -0.0828122 -6.13587 12.8035
          CHANNELS 3 Zrotation Xrotation Yrotation
          End Site
          {
            OFFSET -0.131328 -1.35082 5.13018
          }
        }
      }
    }
  }
}
MOTION
Frames: 6
Frame Time: 0.03333333333333333
0.0000 93.1000 0.0000 -68.0049 -16.1876 127.7265 -71.4022 0.0787 87.9212 116.1060 61.3067 -36.4661 -10.1685 21.1629 -16.4876 -151.5651 -2.7166 -150.9025 -151.9122 33.4678 -170.7531 0.9494 -7.7457 -26.8287 -102.1769 20.0869 -71.9822 -2.9105 -0.0202 -107.9496 -0.1572 -0.1500 0.2452 -2.2109 7.9656 38.8929 -66.7331 -33.2141 72.5341 10.3652 -5.5580 63.9461 -0.0932 0.1095 0.1678 -22.9310 45.2958 70.7866 -22.4509 78.5587 -2.2068 -6.9223 -21.7082 -2.6549 10.5312 -21.3766 14.2419 -22.3353 -28.1525 121.2959 1.1158 38.9051 -4.0519 -6.2981 -13.6459 0.8607 3.2442 -5.1169 -25.1396 
0.0000 93.1000 0.0000 -69.6943 -21.1992 132.4900 -71.3701 0.0023 87.8316 121.6403 60.6398 -39.8804 -10.9341 22.4406 -16.2432 -150.7478 -0.6910 -148.7863 -154.2673 36.0199 -170.9819 1.1602 -9.1447 -28.9349 -101.5454 24.3851 -71.0350 -1.8276 -0.3402 -110.2146 -0.0988 -0.5226 0.0345 -2.5641 9.3771 42.1214 -61.4632 -37.4649 89.7778 13.3545 -8.6437 60.3172 0.3324 -0.4356 -0.2175 -8.9229 42.2316 66.5281 -147.0337 78.4958 122.3585 -5.7436 -19.2673 -3.1737 15.4816 -28.6736 21.0881 -22.4164 -30.8939 107.2853 1.2850 38.8543 -0.1277 -8.5928 -13.5186 0.7183 3.2588 -8.1159 -29.0017 
0.0000 93.1000 0.0000 -71.9763 -27.5266 136.5231 -71.6260 0.2462 87.8783 125.8079 62.3466 -44.5182 -12.1908 24.4450 -14.8213 -149.5021 3.1516 -149.0651 -156.6917 39.9276 -167.8992 0.9846 -9.4978 -30.3814 -98.9827 29.1515 -74.2337 2.3092 -1.8555 -112.3936 -0.5368 -0.4361 -0.1307 -2.4937 9.3711 44.2187 -59.1383 -38.7964 105.6961 16.4724 -12.3157 57.3567 0.1265 -0.7019 -0.2622 -3.5155 39.6237 73.1193 -163.1779 64.7556 133.9647 -7.9763 -18.3620 -2.6383 15.6113 -28.3469 21.1460 -25.0821 -31.3193 100.8270 0.9654 39.0490 -4.9395 -9.7602 -14.7439 1.3123 2.9670 -6.2884 -27.4119 
0.0000 93.1000 0.0000 -73.9170 -36.9478 142.3311 -71.9376 0.4009 88.0987 128.6045 63.9721 -47.1499 -11.9653 25.9048 -13.0830 -145.3282 7.0983 -154.5162 -156.5278 43.3742 -169.9971 0.7779 -9.9183 -30.2284 -94.1976 33.0126 -79.3022 6.9087 -3.2145 -113.1954 0.0703 -0.2562 0.1118 -2.5785 9.1912 45.0018 -59.0266 -37.5954 115.5135 20.6061 -13.3998 59.0191 -0.4001 -0.3098 0.0747 -0.5268 34.9746 83.0557 -167.5066 51.3073 132.3829 -9.3391 -17.3398 -2.2479 16.4557 -29.2195 21.4879 -31.2773 -31.1480 92.1175 0.1963 37.9539 -8.0496 -9.5601 -17.5502 1.3589 4.4774 -2.0342 -31.1514 
0.0000 93.1000 0.0000 -77.6112 -48.6483 151.4428 -71.9979 -0.1801 88.1544 129.8253 64.6712 -43.5677 -10.7667 25.4906 -11.6741 -142.1735 12.3076 -155.5941 -158.5502 48.4162 -165.7203 0.3948 -10.8865 -30.2445 -88.8427 34.8248 -88.5365 11.0491 -5.3488 -111.0624 -0.2087 -0.5987 0.1271 -3.0755 8.6831 43.4329 -62.2707 -35.6649 120.7840 24.4218 -12.5012 61.4052 0.1608 -0.1317 -0.2407 1.1118 27.5439 92.8019 -168.8333 44.3745 134.7855 -8.4679 -11.4912 -0.9780 16.2481 -28.7320 15.5258 -42.0989 -31.1039 75.2189 0.3752 32.8140 -9.1949 -7.9975 -18.7446 0.9834 4.2584 1.6952 -28.6215 
0.0000 93.1000 0.0000 -79.5040 -59.7869 161.0191 -72.0623 -0.2007 88.1560 130.7232 66.2603 -42.6339 -11.1361 25.1444 -7.2997 -137.2562 17.1863 -160.2800 -162.5222 52.9049 -163.7527 0.3685 -11.9374 -29.2059 -83.7816 35.3108 -99.5729 11.8447 -5.3608 -108.3258 -0.2253 -0.2512 -0.1094 -2.4366 8.8925 39.0895 -68.5819 -33.4503 121.7492 24.9539 -12.2928 64.2372 -0.0102 -0.2298 0.0055 -6.9144 21.6587 101.2048 -166.6721 46.0344 137.8540 -11.5163 -3.4763 0.1968 13.2892 -26.5292 12.6151 -52.0345 -27.1447 62.9791 1.1059 28.0947 -12.1216 -6.0917 -16.9398 0.9909 2.1241 -0.1969 -20.9396 
